<svg xmlns="http://www.w3.org/2000/svg" viewBox="0 0 800 500" fill="none">
  <rect width="800" height="500" fill="#0f172a"/>
  <rect x="0" y="0" width="800" height="500" fill="url(#grad2)" opacity="0.5"/>
  <defs>
    <linearGradient id="grad2" x1="0" y1="0" x2="800" y2="500">
      <stop offset="0%" style="stop-color:#f59e0b;stop-opacity:0.2"/>
      <stop offset="100%" style="stop-color:#ea580c;stop-opacity:0.2"/>
    </linearGradient>
  </defs>
  <!-- Nav Bar -->
  <rect x="0" y="0" width="800" height="56" fill="#1e293b" opacity="0.8"/>
  <text x="40" y="36" fill="#f1f5f9" font-family="system-ui" font-size="18" font-weight="800">🛒 ShopHub</text>
  <rect x="600" y="14" width="100" height="30" rx="8" fill="#f59e0b" opacity="0.2"/>
  <text x="625" y="34" fill="#fcd34d" font-family="system-ui" font-size="13" font-weight="600">Cart (3)</text>
  <!-- Category Filters -->
  <rect x="40" y="76" width="90" height="32" rx="8" fill="#f59e0b" opacity="0.15"/>
  <text x="60" y="97" fill="#fcd34d" font-family="system-ui" font-size="12" font-weight="600">All</text>
  <rect x="146" y="76" width="110" height="32" rx="8" fill="#1e293b" stroke="#334155" stroke-width="1"/>
  <text x="166" y="97" fill="#94a3b8" font-family="system-ui" font-size="12">Electronics</text>
  <rect x="272" y="76" width="100" height="32" rx="8" fill="#1e293b" stroke="#334155" stroke-width="1"/>
  <text x="292" y="97" fill="#94a3b8" font-family="system-ui" font-size="12">Clothing</text>
  <rect x="388" y="76" width="90" height="32" rx="8" fill="#1e293b" stroke="#334155" stroke-width="1"/>
  <text x="408" y="97" fill="#94a3b8" font-family="system-ui" font-size="12">Home</text>
  <!-- Product Cards Row 1 -->
  <rect x="40" y="128" width="230" height="166" rx="16" fill="#1e293b" stroke="#334155" stroke-width="1"/>
  <rect x="56" y="140" width="198" height="80" rx="10" fill="#334155"/>
  <text x="120" y="186" fill="#64748b" font-family="system-ui" font-size="24" text-anchor="middle">📱</text>
  <text x="56" y="242" fill="#f1f5f9" font-family="system-ui" font-size="13" font-weight="700">Wireless Earbuds Pro</text>
  <text x="56" y="260" fill="#fcd34d" font-family="system-ui" font-size="14" font-weight="800">$79.99</text>
  <text x="160" y="260" fill="#64748b" font-family="system-ui" font-size="11">⭐⭐⭐⭐⭐</text>
  <rect x="56" y="268" width="80" height="22" rx="6" fill="#f59e0b" opacity="0.2"/>
  <text x="70" y="283" fill="#fcd34d" font-family="system-ui" font-size="10" font-weight="600">Add to Cart</text>

  <rect x="286" y="128" width="230" height="166" rx="16" fill="#1e293b" stroke="#334155" stroke-width="1"/>
  <rect x="302" y="140" width="198" height="80" rx="10" fill="#334155"/>
  <text x="366" y="186" fill="#64748b" font-family="system-ui" font-size="24" text-anchor="middle">👟</text>
  <text x="302" y="242" fill="#f1f5f9" font-family="system-ui" font-size="13" font-weight="700">Running Shoes X1</text>
  <text x="302" y="260" fill="#fcd34d" font-family="system-ui" font-size="14" font-weight="800">$129.99</text>
  <text x="406" y="260" fill="#64748b" font-family="system-ui" font-size="11">⭐⭐⭐⭐</text>
  <rect x="302" y="268" width="80" height="22" rx="6" fill="#f59e0b" opacity="0.2"/>
  <text x="316" y="283" fill="#fcd34d" font-family="system-ui" font-size="10" font-weight="600">Add to Cart</text>

  <rect x="532" y="128" width="230" height="166" rx="16" fill="#1e293b" stroke="#334155" stroke-width="1"/>
  <rect x="548" y="140" width="198" height="80" rx="10" fill="#334155"/>
  <text x="612" y="186" fill="#64748b" font-family="system-ui" font-size="24" text-anchor="middle">⌚</text>
  <text x="548" y="242" fill="#f1f5f9" font-family="system-ui" font-size="13" font-weight="700">Smart Watch Ultra</text>
  <text x="548" y="260" fill="#fcd34d" font-family="system-ui" font-size="14" font-weight="800">$349.99</text>
  <text x="652" y="260" fill="#64748b" font-family="system-ui" font-size="11">⭐⭐⭐⭐⭐</text>
  <rect x="548" y="268" width="80" height="22" rx="6" fill="#f59e0b" opacity="0.2"/>
  <text x="562" y="283" fill="#fcd34d" font-family="system-ui" font-size="10" font-weight="600">Add to Cart</text>

  <!-- Product Cards Row 2 -->
  <rect x="40" y="310" width="230" height="166" rx="16" fill="#1e293b" stroke="#334155" stroke-width="1"/>
  <rect x="56" y="322" width="198" height="80" rx="10" fill="#334155"/>
  <text x="120" y="368" fill="#64748b" font-family="system-ui" font-size="24" text-anchor="middle">🎧</text>
  <text x="56" y="424" fill="#f1f5f9" font-family="system-ui" font-size="13" font-weight="700">Noise Cancel Max</text>
  <text x="56" y="442" fill="#fcd34d" font-family="system-ui" font-size="14" font-weight="800">$249.99</text>
  <text x="160" y="442" fill="#64748b" font-family="system-ui" font-size="11">⭐⭐⭐⭐</text>
  <rect x="56" y="450" width="80" height="22" rx="6" fill="#f59e0b" opacity="0.2"/>
  <text x="70" y="465" fill="#fcd34d" font-family="system-ui" font-size="10" font-weight="600">Add to Cart</text>

  <rect x="286" y="310" width="230" height="166" rx="16" fill="#1e293b" stroke="#334155" stroke-width="1"/>
  <rect x="302" y="322" width="198" height="80" rx="10" fill="#334155"/>
  <text x="366" y="368" fill="#64748b" font-family="system-ui" font-size="24" text-anchor="middle">💻</text>
  <text x="302" y="424" fill="#f1f5f9" font-family="system-ui" font-size="13" font-weight="700">MacBook Pro M3</text>
  <text x="302" y="442" fill="#fcd34d" font-family="system-ui" font-size="14" font-weight="800">$1,999.00</text>
  <text x="406" y="442" fill="#64748b" font-family="system-ui" font-size="11">⭐⭐⭐⭐⭐</text>
  <rect x="302" y="450" width="80" height="22" rx="6" fill="#f59e0b" opacity="0.2"/>
  <text x="316" y="465" fill="#fcd34d" font-family="system-ui" font-size="10" font-weight="600">Add to Cart</text>

  <rect x="532" y="310" width="230" height="166" rx="16" fill="#1e293b" stroke="#334155" stroke-width="1"/>
  <rect x="548" y="322" width="198" height="80" rx="10" fill="#334155"/>
  <text x="612" y="368" fill="#64748b" font-family="system-ui" font-size="24" text-anchor="middle">🎒</text>
  <text x="548" y="424" fill="#f1f5f9" font-family="system-ui" font-size="13" font-weight="700">Travel Backpack Pro</text>
  <text x="548" y="442" fill="#fcd34d" font-family="system-ui" font-size="14" font-weight="800">$89.99</text>
  <text x="652" y="442" fill="#64748b" font-family="system-ui" font-size="11">⭐⭐⭐⭐</text>
  <rect x="548" y="450" width="80" height="22" rx="6" fill="#f59e0b" opacity="0.2"/>
  <text x="562" y="465" fill="#fcd34d" font-family="system-ui" font-size="10" font-weight="600">Add to Cart</text>
</svg>
